<?xml version="1.0" encoding="utf-8"?>
<!-- Generator: Adobe Illustrator 22.0.0, SVG Export Plug-In . SVG Version: 6.00 Build 0)  -->
<svg version="1.1" id="Layer_1" xmlns="http://www.w3.org/2000/svg" xmlns:xlink="http://www.w3.org/1999/xlink" x="0px" y="0px"
	 viewBox="0 0 500 500" style="enable-background:new 0 0 500 500;" xml:space="preserve">
<style type="text/css">
	.st0{fill:#77D6DB;}
	.st1{fill:none;}
	.st2{fill:#FFFFFF;}
</style>
<circle class="st0" cx="250" cy="248.9" r="245"/>
<rect class="st1" width="500" height="500"/>
<path class="st2" d="M375,162.5H262.5c-6.9,0-12.5-5.6-12.5-12.5v0c0-6.9,5.6-12.5,12.5-12.5H375c6.9,0,12.5,5.6,12.5,12.5v0
	C387.5,156.9,381.9,162.5,375,162.5z"/>
<path class="st2" d="M375,212.5H262.5c-6.9,0-12.5-5.6-12.5-12.5v0c0-6.9,5.6-12.5,12.5-12.5H375c6.9,0,12.5,5.6,12.5,12.5v0
	C387.5,206.9,381.9,212.5,375,212.5z"/>
<path class="st2" d="M375,262.5H262.5c-6.9,0-12.5-5.6-12.5-12.5v0c0-6.9,5.6-12.5,12.5-12.5H375c6.9,0,12.5,5.6,12.5,12.5v0
	C387.5,256.9,381.9,262.5,375,262.5z"/>
<path class="st2" d="M375,312.5H262.5c-6.9,0-12.5-5.6-12.5-12.5l0,0c0-6.9,5.6-12.5,12.5-12.5H375c6.9,0,12.5,5.6,12.5,12.5l0,0
	C387.5,306.9,381.9,312.5,375,312.5z"/>
<path class="st2" d="M375,362.5H125c-6.9,0-12.5-5.6-12.5-12.5l0,0c0-6.9,5.6-12.5,12.5-12.5h250c6.9,0,12.5,5.6,12.5,12.5l0,0
	C387.5,356.9,381.9,362.5,375,362.5z"/>
<path class="st2" d="M219.1,138.1c-0.3-1.5-1.2-2.8-2.9-3.2c-1.7-0.5-5.5-0.7-9.4-0.7c-4.5,0-6,0.2-7.5,0.5
	c-1.5,0.3-2.9,0.5-5.3,3.2c-5,5.7-10.2,6.4-14.6,6.4c-6.2,0-10.5-2.8-14.1-5.5c-3.1-2.3-6.7-3.3-11.9-3.3c-5,0-9.7,1.5-13.3,4.2
	l-0.1,0.1c-3.3,2.4-5.9,2.9-10.2,4.1c-2.3,0.7-5.8,1.4-8.1,2.1c-8.8,2.8-15.9,5-25,12.2c-5.3,4.2-8.5,8.4-9.1,11.2
	c-0.5,2,1.1,4.2,7.4,2c9.2-3.3,25.8-9.8,37.1-4.9c8.3,3.5,10.3,14.8,10.3,23.7c0,3.5,0.1,14.4,0.2,24.5c-3,1.7-5.1,5-5.1,8.7v80
	c0,5.5,4.5,10,10,10h12.7c5.5,0,10-4.5,10-10v-80c0-4-2.4-7.5-5.8-9.1c0-13,0-27.7,0-29.2c0-13.3,9.8-18.4,16.2-18.7
	c6.3-0.3,10.4,0.8,14.2,5.9c1,1.3,2.3,2.7,4.1,3.5c1.6,0.7,3.2,0.7,7.9,0.8c5,0.1,8-0.5,9.7-1.1c1.4-0.5,2.5-1.9,2.8-3.6
	C220,168,219.9,142.1,219.1,138.1z"/>
</svg>
